<svg xmlns="http://www.w3.org/2000/svg" viewBox="0 0 512 512">
  <defs>
    <linearGradient id="g" x1="0" x2="1" y1="0" y2="1">
      <stop offset="0" stop-color="#2563eb"/>
      <stop offset="1" stop-color="#0f172a"/>
    </linearGradient>
  </defs>
  <rect width="512" height="512" rx="96" fill="url(#g)"/>
  <g fill="#fff" opacity="0.95">
    <path d="M256 112c-44.2 0-80 35.8-80 80v64c0 44.2 35.8 80 80 80s80-35.8 80-80v-64c0-44.2-35.8-80-80-80z"/>
    <path d="M352 256a96 96 0 0 1-192 0h-32a128 128 0 0 0 112 126.6V424h-64v32h160v-32h-64v-41.4A128 128 0 0 0 384 256h-32z"/>
  </g>
</svg>

